# Blender v2.81 (sub 16) OBJ File: ''
# www.blender.org
mtllib ring_widget.mtl
o Torus
v -1.060000 0.000000 0.000000
v -1.045963 0.038567 0.000000
v -1.010419 0.059088 0.000000
v -0.970000 0.051962 0.000000
v -0.943618 0.020521 0.000000
v -0.943618 -0.020521 0.000000
v -0.970000 -0.051962 0.000000
v -1.010419 -0.059088 0.000000
v -1.045963 -0.038567 0.000000
v -1.008120 0.000000 0.327558
v -0.994770 0.038567 0.323220
v -0.960966 0.059088 0.312236
v -0.922525 0.051962 0.299746
v -0.897434 0.020521 0.291594
v -0.897434 -0.020521 0.291594
v -0.922525 -0.051962 0.299746
v -0.960966 -0.059088 0.312236
v -0.994770 -0.038567 0.323220
v -0.857558 0.000000 0.623052
v -0.846202 0.038567 0.614801
v -0.817446 0.059088 0.593909
v -0.784747 0.051962 0.570152
v -0.763403 0.020521 0.554645
v -0.763403 -0.020521 0.554645
v -0.784747 -0.051962 0.570152
v -0.817446 -0.059088 0.593909
v -0.846202 -0.038567 0.614801
v -0.623052 0.000000 0.857558
v -0.614801 0.038567 0.846202
v -0.593909 0.059088 0.817446
v -0.570152 0.051962 0.784747
v -0.554645 0.020521 0.763403
v -0.554645 -0.020521 0.763403
v -0.570152 -0.051962 0.784747
v -0.593909 -0.059088 0.817446
v -0.614801 -0.038567 0.846202
v -0.327558 0.000000 1.008120
v -0.323220 0.038567 0.994770
v -0.312237 0.059088 0.960965
v -0.299747 0.051962 0.922525
v -0.291594 0.020521 0.897434
v -0.291594 -0.020521 0.897434
v -0.299747 -0.051962 0.922525
v -0.312237 -0.059088 0.960965
v -0.323220 -0.038567 0.994770
v -0.000000 0.000000 1.060000
v -0.000000 0.038567 1.045963
v -0.000000 0.059088 1.010419
v -0.000000 0.051962 0.970000
v -0.000000 0.020521 0.943618
v -0.000000 -0.020521 0.943618
v -0.000000 -0.051962 0.970000
v -0.000000 -0.059088 1.010419
v -0.000000 -0.038567 1.045963
v 0.327558 0.000000 1.008120
v 0.323220 0.038567 0.994770
v 0.312237 0.059088 0.960965
v 0.299747 0.051962 0.922525
v 0.291594 0.020521 0.897434
v 0.291594 -0.020521 0.897434
v 0.299747 -0.051962 0.922525
v 0.312237 -0.059088 0.960965
v 0.323220 -0.038567 0.994770
v 0.623053 0.000000 0.857558
v 0.614802 0.038567 0.846201
v 0.593910 0.059088 0.817446
v 0.570152 0.051962 0.784746
v 0.554645 0.020521 0.763403
v 0.554645 -0.020521 0.763403
v 0.570152 -0.051962 0.784746
v 0.593910 -0.059088 0.817446
v 0.614802 -0.038567 0.846201
v 0.857558 0.000000 0.623052
v 0.846202 0.038567 0.614801
v 0.817446 0.059088 0.593909
v 0.784747 0.051962 0.570151
v 0.763404 0.020521 0.554645
v 0.763404 -0.020521 0.554645
v 0.784747 -0.051962 0.570151
v 0.817446 -0.059088 0.593909
v 0.846202 -0.038567 0.614801
v 1.008120 0.000000 0.327558
v 0.994770 0.038567 0.323220
v 0.960965 0.059088 0.312237
v 0.922525 0.051962 0.299747
v 0.897434 0.020521 0.291594
v 0.897434 -0.020521 0.291594
v 0.922525 -0.051962 0.299747
v 0.960965 -0.059088 0.312237
v 0.994770 -0.038567 0.323220
v 1.060000 0.000000 0.000000
v 1.045963 0.038567 0.000000
v 1.010419 0.059088 0.000000
v 0.970000 0.051962 0.000000
v 0.943618 0.020521 0.000000
v 0.943618 -0.020521 0.000000
v 0.970000 -0.051962 0.000000
v 1.010419 -0.059088 0.000000
v 1.045963 -0.038567 0.000000
v 1.008120 0.000000 -0.327558
v 0.994770 0.038567 -0.323220
v 0.960966 0.059088 -0.312236
v 0.922525 0.051962 -0.299746
v 0.897435 0.020521 -0.291594
v 0.897435 -0.020521 -0.291594
v 0.922525 -0.051962 -0.299746
v 0.960966 -0.059088 -0.312236
v 0.994770 -0.038567 -0.323220
v 0.857558 0.000000 -0.623052
v 0.846202 0.038567 -0.614801
v 0.817446 0.059088 -0.593909
v 0.784747 0.051962 -0.570151
v 0.763404 0.020521 -0.554645
v 0.763404 -0.020521 -0.554645
v 0.784747 -0.051962 -0.570151
v 0.817446 -0.059088 -0.593909
v 0.846202 -0.038567 -0.614801
v 0.623053 0.000000 -0.857558
v 0.614802 0.038567 -0.846201
v 0.593910 0.059088 -0.817446
v 0.570152 0.051962 -0.784746
v 0.554645 0.020521 -0.763403
v 0.554645 -0.020521 -0.763403
v 0.570152 -0.051962 -0.784746
v 0.593910 -0.059088 -0.817446
v 0.614802 -0.038567 -0.846201
v 0.327558 0.000000 -1.008120
v 0.323220 0.038567 -0.994770
v 0.312237 0.059088 -0.960965
v 0.299747 0.051962 -0.922525
v 0.291594 0.020521 -0.897434
v 0.291594 -0.020521 -0.897434
v 0.299747 -0.051962 -0.922525
v 0.312237 -0.059088 -0.960965
v 0.323220 -0.038567 -0.994770
v -0.000000 0.000000 -1.060000
v -0.000000 0.038567 -1.045963
v -0.000000 0.059088 -1.010419
v -0.000000 0.051962 -0.970000
v -0.000000 0.020521 -0.943618
v -0.000000 -0.020521 -0.943618
v -0.000000 -0.051962 -0.970000
v -0.000000 -0.059088 -1.010419
v -0.000000 -0.038567 -1.045963
v -0.327558 0.000000 -1.008120
v -0.323220 0.038567 -0.994770
v -0.312237 0.059088 -0.960965
v -0.299747 0.051962 -0.922525
v -0.291594 0.020521 -0.897434
v -0.291594 -0.020521 -0.897434
v -0.299747 -0.051962 -0.922525
v -0.312237 -0.059088 -0.960965
v -0.323220 -0.038567 -0.994770
v -0.623052 0.000000 -0.857558
v -0.614801 0.038567 -0.846202
v -0.593909 0.059088 -0.817446
v -0.570151 0.051962 -0.784747
v -0.554645 0.020521 -0.763404
v -0.554645 -0.020521 -0.763404
v -0.570151 -0.051962 -0.784747
v -0.593909 -0.059088 -0.817446
v -0.614801 -0.038567 -0.846202
v -0.857558 0.000000 -0.623053
v -0.846201 0.038567 -0.614802
v -0.817446 0.059088 -0.593910
v -0.784746 0.051962 -0.570152
v -0.763403 0.020521 -0.554645
v -0.763403 -0.020521 -0.554645
v -0.784746 -0.051962 -0.570152
v -0.817446 -0.059088 -0.593910
v -0.846201 -0.038567 -0.614802
v -1.008120 0.000000 -0.327558
v -0.994770 0.038567 -0.323221
v -0.960965 0.059088 -0.312237
v -0.922525 0.051962 -0.299747
v -0.897434 0.020521 -0.291594
v -0.897434 -0.020521 -0.291594
v -0.922525 -0.051962 -0.299747
v -0.960965 -0.059088 -0.312237
v -0.994770 -0.038567 -0.323221
vt 0.550000 0.555556
vt 0.600000 0.555556
vt 0.600000 0.666667
vt 0.550000 0.666667
vt 0.600000 0.777778
vt 0.550000 0.777778
vt 0.600000 0.888889
vt 0.550000 0.888889
vt 0.600000 1.000000
vt 0.550000 1.000000
vt 0.550000 0.000000
vt 0.600000 0.000000
vt 0.600000 0.111111
vt 0.550000 0.111111
vt 0.600000 0.222222
vt 0.550000 0.222222
vt 0.600000 0.333333
vt 0.550000 0.333333
vt 0.600000 0.444444
vt 0.550000 0.444444
vt 0.650000 0.555556
vt 0.650000 0.666667
vt 0.650000 0.777778
vt 0.650000 0.888889
vt 0.650000 1.000000
vt 0.650000 0.000000
vt 0.650000 0.111111
vt 0.650000 0.222222
vt 0.650000 0.333333
vt 0.650000 0.444444
vt 0.700000 0.555556
vt 0.700000 0.666667
vt 0.700000 0.777778
vt 0.700000 0.888889
vt 0.700000 1.000000
vt 0.700000 0.000000
vt 0.700000 0.111111
vt 0.700000 0.222222
vt 0.700000 0.333333
vt 0.700000 0.444444
vt 0.750000 0.555556
vt 0.750000 0.666667
vt 0.750000 0.777778
vt 0.750000 0.888889
vt 0.750000 1.000000
vt 0.750000 0.000000
vt 0.750000 0.111111
vt 0.750000 0.222222
vt 0.750000 0.333333
vt 0.750000 0.444444
vt 0.800000 0.555556
vt 0.800000 0.666667
vt 0.800000 0.777778
vt 0.800000 0.888889
vt 0.800000 1.000000
vt 0.800000 0.000000
vt 0.800000 0.111111
vt 0.800000 0.222222
vt 0.800000 0.333333
vt 0.800000 0.444444
vt 0.850000 0.555556
vt 0.850000 0.666667
vt 0.850000 0.777778
vt 0.850000 0.888889
vt 0.850000 1.000000
vt 0.850000 0.000000
vt 0.850000 0.111111
vt 0.850000 0.222222
vt 0.850000 0.333333
vt 0.850000 0.444444
vt 0.900000 0.555556
vt 0.900000 0.666667
vt 0.900000 0.777778
vt 0.900000 0.888889
vt 0.900000 1.000000
vt 0.900000 0.000000
vt 0.900000 0.111111
vt 0.900000 0.222222
vt 0.900000 0.333333
vt 0.900000 0.444444
vt 0.950000 0.555556
vt 0.950000 0.666667
vt 0.950000 0.777778
vt 0.950000 0.888889
vt 0.950000 1.000000
vt 0.950000 0.000000
vt 0.950000 0.111111
vt 0.950000 0.222222
vt 0.950000 0.333333
vt 0.950000 0.444444
vt 1.000000 0.555556
vt 1.000000 0.666667
vt 1.000000 0.777778
vt 1.000000 0.888889
vt 1.000000 1.000000
vt 1.000000 0.000000
vt 1.000000 0.111111
vt 1.000000 0.222222
vt 1.000000 0.333333
vt 1.000000 0.444444
vt 0.000000 0.555556
vt 0.050000 0.555556
vt 0.050000 0.666667
vt 0.000000 0.666667
vt 0.050000 0.777778
vt 0.000000 0.777778
vt 0.050000 0.888889
vt 0.000000 0.888889
vt 0.050000 1.000000
vt 0.000000 1.000000
vt 0.000000 0.000000
vt 0.050000 0.000000
vt 0.050000 0.111111
vt 0.000000 0.111111
vt 0.050000 0.222222
vt 0.000000 0.222222
vt 0.050000 0.333333
vt 0.000000 0.333333
vt 0.050000 0.444444
vt 0.000000 0.444444
vt 0.100000 0.555556
vt 0.100000 0.666667
vt 0.100000 0.777778
vt 0.100000 0.888889
vt 0.100000 1.000000
vt 0.100000 0.000000
vt 0.100000 0.111111
vt 0.100000 0.222222
vt 0.100000 0.333333
vt 0.100000 0.444444
vt 0.150000 0.555556
vt 0.150000 0.666667
vt 0.150000 0.777778
vt 0.150000 0.888889
vt 0.150000 1.000000
vt 0.150000 0.000000
vt 0.150000 0.111111
vt 0.150000 0.222222
vt 0.150000 0.333333
vt 0.150000 0.444444
vt 0.200000 0.555556
vt 0.200000 0.666667
vt 0.200000 0.777778
vt 0.200000 0.888889
vt 0.200000 1.000000
vt 0.200000 0.000000
vt 0.200000 0.111111
vt 0.200000 0.222222
vt 0.200000 0.333333
vt 0.200000 0.444444
vt 0.250000 0.555556
vt 0.250000 0.666667
vt 0.250000 0.777778
vt 0.250000 0.888889
vt 0.250000 1.000000
vt 0.250000 0.000000
vt 0.250000 0.111111
vt 0.250000 0.222222
vt 0.250000 0.333333
vt 0.250000 0.444444
vt 0.300000 0.555556
vt 0.300000 0.666667
vt 0.300000 0.777778
vt 0.300000 0.888889
vt 0.300000 1.000000
vt 0.300000 0.000000
vt 0.300000 0.111111
vt 0.300000 0.222222
vt 0.300000 0.333333
vt 0.300000 0.444444
vt 0.350000 0.555556
vt 0.350000 0.666667
vt 0.350000 0.777778
vt 0.350000 0.888889
vt 0.350000 1.000000
vt 0.350000 0.000000
vt 0.350000 0.111111
vt 0.350000 0.222222
vt 0.350000 0.333333
vt 0.350000 0.444444
vt 0.400000 0.555556
vt 0.400000 0.666667
vt 0.400000 0.777778
vt 0.400000 0.888889
vt 0.400000 1.000000
vt 0.400000 0.000000
vt 0.400000 0.111111
vt 0.400000 0.222222
vt 0.400000 0.333333
vt 0.400000 0.444444
vt 0.450000 0.555556
vt 0.450000 0.666667
vt 0.450000 0.777778
vt 0.450000 0.888889
vt 0.450000 1.000000
vt 0.450000 0.000000
vt 0.450000 0.111111
vt 0.450000 0.222222
vt 0.450000 0.333333
vt 0.450000 0.444444
vt 0.500000 0.555556
vt 0.500000 0.666667
vt 0.500000 0.777778
vt 0.500000 0.888889
vt 0.500000 1.000000
vt 0.500000 0.000000
vt 0.500000 0.111111
vt 0.500000 0.222222
vt 0.500000 0.333333
vt 0.500000 0.444444
vn -0.9295 0.3383 0.1472
vn -0.4984 0.8633 0.0789
vn 0.1736 0.9844 -0.0275
vn 0.7605 0.6381 -0.1204
vn 0.9877 0.0000 -0.1564
vn 0.7605 -0.6381 -0.1204
vn 0.1736 -0.9844 -0.0275
vn -0.4984 -0.8633 0.0789
vn -0.9295 -0.3383 0.1472
vn -0.8385 0.3383 0.4272
vn -0.4496 0.8633 0.2291
vn 0.1566 0.9844 -0.0798
vn 0.6860 0.6381 -0.3495
vn 0.8910 0.0000 -0.4540
vn 0.6860 -0.6381 -0.3495
vn 0.1566 -0.9844 -0.0798
vn -0.4496 -0.8633 0.2291
vn -0.8385 -0.3383 0.4272
vn -0.6654 0.3383 0.6654
vn -0.3568 0.8633 0.3568
vn 0.1243 0.9844 -0.1243
vn 0.5444 0.6381 -0.5444
vn 0.7071 0.0000 -0.7071
vn 0.5444 -0.6381 -0.5444
vn 0.1243 -0.9844 -0.1243
vn -0.3568 -0.8633 0.3568
vn -0.6654 -0.3383 0.6654
vn -0.4272 0.3383 0.8385
vn -0.2291 0.8633 0.4496
vn 0.0798 0.9844 -0.1566
vn 0.3495 0.6381 -0.6860
vn 0.4540 0.0000 -0.8910
vn 0.3495 -0.6381 -0.6860
vn 0.0798 -0.9844 -0.1566
vn -0.2291 -0.8633 0.4496
vn -0.4272 -0.3383 0.8385
vn -0.1472 0.3383 0.9295
vn -0.0789 0.8633 0.4984
vn 0.0275 0.9844 -0.1736
vn 0.1204 0.6381 -0.7605
vn 0.1564 0.0000 -0.9877
vn 0.1204 -0.6381 -0.7605
vn 0.0275 -0.9844 -0.1736
vn -0.0789 -0.8633 0.4984
vn -0.1472 -0.3383 0.9295
vn 0.1472 0.3383 0.9295
vn 0.0789 0.8633 0.4984
vn -0.0275 0.9844 -0.1736
vn -0.1204 0.6381 -0.7605
vn -0.1564 0.0000 -0.9877
vn -0.1204 -0.6381 -0.7605
vn -0.0275 -0.9844 -0.1736
vn 0.0789 -0.8633 0.4984
vn 0.1472 -0.3383 0.9295
vn 0.4272 0.3383 0.8385
vn 0.2291 0.8633 0.4496
vn -0.0798 0.9844 -0.1566
vn -0.3495 0.6381 -0.6860
vn -0.4540 0.0000 -0.8910
vn -0.3495 -0.6381 -0.6860
vn -0.0798 -0.9844 -0.1566
vn 0.2291 -0.8633 0.4496
vn 0.4272 -0.3383 0.8385
vn 0.6654 0.3383 0.6654
vn 0.3568 0.8633 0.3568
vn -0.1243 0.9844 -0.1243
vn -0.5444 0.6381 -0.5444
vn -0.7071 0.0000 -0.7071
vn -0.5444 -0.6381 -0.5444
vn -0.1243 -0.9844 -0.1243
vn 0.3568 -0.8633 0.3568
vn 0.6654 -0.3383 0.6654
vn 0.8385 0.3383 0.4272
vn 0.4496 0.8633 0.2291
vn -0.1566 0.9844 -0.0798
vn -0.6860 0.6381 -0.3495
vn -0.8910 0.0000 -0.4540
vn -0.6860 -0.6381 -0.3495
vn -0.1566 -0.9844 -0.0798
vn 0.4496 -0.8633 0.2291
vn 0.8385 -0.3383 0.4272
vn 0.9295 0.3383 0.1472
vn 0.4984 0.8633 0.0789
vn -0.1736 0.9844 -0.0275
vn -0.7605 0.6381 -0.1204
vn -0.9877 0.0000 -0.1564
vn -0.7605 -0.6381 -0.1204
vn -0.1736 -0.9844 -0.0275
vn 0.4984 -0.8633 0.0789
vn 0.9295 -0.3383 0.1472
vn 0.9295 0.3383 -0.1472
vn 0.4984 0.8633 -0.0789
vn -0.1736 0.9844 0.0275
vn -0.7605 0.6381 0.1204
vn -0.9877 0.0000 0.1564
vn -0.7605 -0.6381 0.1204
vn -0.1736 -0.9844 0.0275
vn 0.4984 -0.8633 -0.0789
vn 0.9295 -0.3383 -0.1472
vn 0.8385 0.3383 -0.4272
vn 0.4496 0.8633 -0.2291
vn -0.1566 0.9844 0.0798
vn -0.6860 0.6381 0.3495
vn -0.8910 0.0000 0.4540
vn -0.6860 -0.6381 0.3495
vn -0.1566 -0.9844 0.0798
vn 0.4496 -0.8633 -0.2291
vn 0.8385 -0.3383 -0.4272
vn 0.6654 0.3383 -0.6654
vn 0.3568 0.8633 -0.3568
vn -0.1243 0.9844 0.1243
vn -0.5444 0.6381 0.5444
vn -0.7071 0.0000 0.7071
vn -0.5444 -0.6381 0.5444
vn -0.1243 -0.9844 0.1243
vn 0.3568 -0.8633 -0.3568
vn 0.6654 -0.3383 -0.6654
vn 0.4272 0.3383 -0.8385
vn 0.2291 0.8633 -0.4496
vn -0.0798 0.9844 0.1566
vn -0.3495 0.6381 0.6860
vn -0.4540 0.0000 0.8910
vn -0.3495 -0.6381 0.6860
vn -0.0798 -0.9844 0.1566
vn 0.2291 -0.8633 -0.4496
vn 0.4272 -0.3383 -0.8385
vn 0.1472 0.3383 -0.9295
vn 0.0789 0.8633 -0.4984
vn -0.0275 0.9844 0.1736
vn -0.1204 0.6381 0.7605
vn -0.1564 0.0000 0.9877
vn -0.1204 -0.6381 0.7605
vn -0.0275 -0.9844 0.1736
vn 0.0789 -0.8633 -0.4984
vn 0.1472 -0.3383 -0.9295
vn -0.1472 0.3383 -0.9295
vn -0.0789 0.8633 -0.4984
vn 0.0275 0.9844 0.1736
vn 0.1204 0.6381 0.7605
vn 0.1564 0.0000 0.9877
vn 0.1204 -0.6381 0.7605
vn 0.0275 -0.9844 0.1736
vn -0.0789 -0.8633 -0.4984
vn -0.1472 -0.3383 -0.9295
vn -0.4272 0.3383 -0.8385
vn -0.2291 0.8633 -0.4496
vn 0.0798 0.9844 0.1566
vn 0.3495 0.6381 0.6860
vn 0.4540 0.0000 0.8910
vn 0.3495 -0.6381 0.6860
vn 0.0798 -0.9844 0.1566
vn -0.2291 -0.8633 -0.4496
vn -0.4272 -0.3383 -0.8385
vn -0.6654 0.3383 -0.6654
vn -0.3568 0.8633 -0.3568
vn 0.1243 0.9844 0.1243
vn 0.5444 0.6381 0.5444
vn 0.7071 0.0000 0.7071
vn 0.5444 -0.6381 0.5444
vn 0.1243 -0.9844 0.1243
vn -0.3568 -0.8633 -0.3568
vn -0.6654 -0.3383 -0.6654
vn -0.8385 0.3383 -0.4272
vn -0.4496 0.8633 -0.2291
vn 0.1566 0.9844 0.0798
vn 0.6860 0.6381 0.3495
vn 0.8910 0.0000 0.4540
vn 0.6860 -0.6381 0.3495
vn 0.1566 -0.9844 0.0798
vn -0.4496 -0.8633 -0.2291
vn -0.8385 -0.3383 -0.4272
vn -0.9295 0.3383 -0.1472
vn -0.4984 0.8633 -0.0789
vn 0.1736 0.9844 0.0275
vn 0.7605 0.6381 0.1204
vn 0.9877 0.0000 0.1564
vn 0.7605 -0.6381 0.1204
vn 0.1736 -0.9844 0.0275
vn -0.4984 -0.8633 -0.0789
vn -0.9295 -0.3383 -0.1472
usemtl None
s off
f 1/1/1 10/2/1 11/3/1 2/4/1
f 2/4/2 11/3/2 12/5/2 3/6/2
f 3/6/3 12/5/3 13/7/3 4/8/3
f 4/8/4 13/7/4 14/9/4 5/10/4
f 5/11/5 14/12/5 15/13/5 6/14/5
f 6/14/6 15/13/6 16/15/6 7/16/6
f 7/16/7 16/15/7 17/17/7 8/18/7
f 8/18/8 17/17/8 18/19/8 9/20/8
f 9/20/9 18/19/9 10/2/9 1/1/9
f 10/2/10 19/21/10 20/22/10 11/3/10
f 11/3/11 20/22/11 21/23/11 12/5/11
f 12/5/12 21/23/12 22/24/12 13/7/12
f 13/7/13 22/24/13 23/25/13 14/9/13
f 14/12/14 23/26/14 24/27/14 15/13/14
f 15/13/15 24/27/15 25/28/15 16/15/15
f 16/15/16 25/28/16 26/29/16 17/17/16
f 17/17/17 26/29/17 27/30/17 18/19/17
f 18/19/18 27/30/18 19/21/18 10/2/18
f 19/21/19 28/31/19 29/32/19 20/22/19
f 20/22/20 29/32/20 30/33/20 21/23/20
f 21/23/21 30/33/21 31/34/21 22/24/21
f 22/24/22 31/34/22 32/35/22 23/25/22
f 23/26/23 32/36/23 33/37/23 24/27/23
f 24/27/24 33/37/24 34/38/24 25/28/24
f 25/28/25 34/38/25 35/39/25 26/29/25
f 26/29/26 35/39/26 36/40/26 27/30/26
f 27/30/27 36/40/27 28/31/27 19/21/27
f 28/31/28 37/41/28 38/42/28 29/32/28
f 29/32/29 38/42/29 39/43/29 30/33/29
f 30/33/30 39/43/30 40/44/30 31/34/30
f 31/34/31 40/44/31 41/45/31 32/35/31
f 32/36/32 41/46/32 42/47/32 33/37/32
f 33/37/33 42/47/33 43/48/33 34/38/33
f 34/38/34 43/48/34 44/49/34 35/39/34
f 35/39/35 44/49/35 45/50/35 36/40/35
f 36/40/36 45/50/36 37/41/36 28/31/36
f 37/41/37 46/51/37 47/52/37 38/42/37
f 38/42/38 47/52/38 48/53/38 39/43/38
f 39/43/39 48/53/39 49/54/39 40/44/39
f 40/44/40 49/54/40 50/55/40 41/45/40
f 41/46/41 50/56/41 51/57/41 42/47/41
f 42/47/42 51/57/42 52/58/42 43/48/42
f 43/48/43 52/58/43 53/59/43 44/49/43
f 44/49/44 53/59/44 54/60/44 45/50/44
f 45/50/45 54/60/45 46/51/45 37/41/45
f 46/51/46 55/61/46 56/62/46 47/52/46
f 47/52/47 56/62/47 57/63/47 48/53/47
f 48/53/48 57/63/48 58/64/48 49/54/48
f 49/54/49 58/64/49 59/65/49 50/55/49
f 50/56/50 59/66/50 60/67/50 51/57/50
f 51/57/51 60/67/51 61/68/51 52/58/51
f 52/58/52 61/68/52 62/69/52 53/59/52
f 53/59/53 62/69/53 63/70/53 54/60/53
f 54/60/54 63/70/54 55/61/54 46/51/54
f 55/61/55 64/71/55 65/72/55 56/62/55
f 56/62/56 65/72/56 66/73/56 57/63/56
f 57/63/57 66/73/57 67/74/57 58/64/57
f 58/64/58 67/74/58 68/75/58 59/65/58
f 59/66/59 68/76/59 69/77/59 60/67/59
f 60/67/60 69/77/60 70/78/60 61/68/60
f 61/68/61 70/78/61 71/79/61 62/69/61
f 62/69/62 71/79/62 72/80/62 63/70/62
f 63/70/63 72/80/63 64/71/63 55/61/63
f 64/71/64 73/81/64 74/82/64 65/72/64
f 65/72/65 74/82/65 75/83/65 66/73/65
f 66/73/66 75/83/66 76/84/66 67/74/66
f 67/74/67 76/84/67 77/85/67 68/75/67
f 68/76/68 77/86/68 78/87/68 69/77/68
f 69/77/69 78/87/69 79/88/69 70/78/69
f 70/78/70 79/88/70 80/89/70 71/79/70
f 71/79/71 80/89/71 81/90/71 72/80/71
f 72/80/72 81/90/72 73/81/72 64/71/72
f 73/81/73 82/91/73 83/92/73 74/82/73
f 74/82/74 83/92/74 84/93/74 75/83/74
f 75/83/75 84/93/75 85/94/75 76/84/75
f 76/84/76 85/94/76 86/95/76 77/85/76
f 77/86/77 86/96/77 87/97/77 78/87/77
f 78/87/78 87/97/78 88/98/78 79/88/78
f 79/88/79 88/98/79 89/99/79 80/89/79
f 80/89/80 89/99/80 90/100/80 81/90/80
f 81/90/81 90/100/81 82/91/81 73/81/81
f 82/101/82 91/102/82 92/103/82 83/104/82
f 83/104/83 92/103/83 93/105/83 84/106/83
f 84/106/84 93/105/84 94/107/84 85/108/84
f 85/108/85 94/107/85 95/109/85 86/110/85
f 86/111/86 95/112/86 96/113/86 87/114/86
f 87/114/87 96/113/87 97/115/87 88/116/87
f 88/116/88 97/115/88 98/117/88 89/118/88
f 89/118/89 98/117/89 99/119/89 90/120/89
f 90/120/90 99/119/90 91/102/90 82/101/90
f 91/102/91 100/121/91 101/122/91 92/103/91
f 92/103/92 101/122/92 102/123/92 93/105/92
f 93/105/93 102/123/93 103/124/93 94/107/93
f 94/107/94 103/124/94 104/125/94 95/109/94
f 95/112/95 104/126/95 105/127/95 96/113/95
f 96/113/96 105/127/96 106/128/96 97/115/96
f 97/115/97 106/128/97 107/129/97 98/117/97
f 98/117/98 107/129/98 108/130/98 99/119/98
f 99/119/99 108/130/99 100/121/99 91/102/99
f 100/121/100 109/131/100 110/132/100 101/122/100
f 101/122/101 110/132/101 111/133/101 102/123/101
f 102/123/102 111/133/102 112/134/102 103/124/102
f 103/124/103 112/134/103 113/135/103 104/125/103
f 104/126/104 113/136/104 114/137/104 105/127/104
f 105/127/105 114/137/105 115/138/105 106/128/105
f 106/128/106 115/138/106 116/139/106 107/129/106
f 107/129/107 116/139/107 117/140/107 108/130/107
f 108/130/108 117/140/108 109/131/108 100/121/108
f 109/131/109 118/141/109 119/142/109 110/132/109
f 110/132/110 119/142/110 120/143/110 111/133/110
f 111/133/111 120/143/111 121/144/111 112/134/111
f 112/134/112 121/144/112 122/145/112 113/135/112
f 113/136/113 122/146/113 123/147/113 114/137/113
f 114/137/114 123/147/114 124/148/114 115/138/114
f 115/138/115 124/148/115 125/149/115 116/139/115
f 116/139/116 125/149/116 126/150/116 117/140/116
f 117/140/117 126/150/117 118/141/117 109/131/117
f 118/141/118 127/151/118 128/152/118 119/142/118
f 119/142/119 128/152/119 129/153/119 120/143/119
f 120/143/120 129/153/120 130/154/120 121/144/120
f 121/144/121 130/154/121 131/155/121 122/145/121
f 122/146/122 131/156/122 132/157/122 123/147/122
f 123/147/123 132/157/123 133/158/123 124/148/123
f 124/148/124 133/158/124 134/159/124 125/149/124
f 125/149/125 134/159/125 135/160/125 126/150/125
f 126/150/126 135/160/126 127/151/126 118/141/126
f 127/151/127 136/161/127 137/162/127 128/152/127
f 128/152/128 137/162/128 138/163/128 129/153/128
f 129/153/129 138/163/129 139/164/129 130/154/129
f 130/154/130 139/164/130 140/165/130 131/155/130
f 131/156/131 140/166/131 141/167/131 132/157/131
f 132/157/132 141/167/132 142/168/132 133/158/132
f 133/158/133 142/168/133 143/169/133 134/159/133
f 134/159/134 143/169/134 144/170/134 135/160/134
f 135/160/135 144/170/135 136/161/135 127/151/135
f 136/161/136 145/171/136 146/172/136 137/162/136
f 137/162/137 146/172/137 147/173/137 138/163/137
f 138/163/138 147/173/138 148/174/138 139/164/138
f 139/164/139 148/174/139 149/175/139 140/165/139
f 140/166/140 149/176/140 150/177/140 141/167/140
f 141/167/141 150/177/141 151/178/141 142/168/141
f 142/168/142 151/178/142 152/179/142 143/169/142
f 143/169/143 152/179/143 153/180/143 144/170/143
f 144/170/144 153/180/144 145/171/144 136/161/144
f 145/171/145 154/181/145 155/182/145 146/172/145
f 146/172/146 155/182/146 156/183/146 147/173/146
f 147/173/147 156/183/147 157/184/147 148/174/147
f 148/174/148 157/184/148 158/185/148 149/175/148
f 149/176/149 158/186/149 159/187/149 150/177/149
f 150/177/150 159/187/150 160/188/150 151/178/150
f 151/178/151 160/188/151 161/189/151 152/179/151
f 152/179/152 161/189/152 162/190/152 153/180/152
f 153/180/153 162/190/153 154/181/153 145/171/153
f 154/181/154 163/191/154 164/192/154 155/182/154
f 155/182/155 164/192/155 165/193/155 156/183/155
f 156/183/156 165/193/156 166/194/156 157/184/156
f 157/184/157 166/194/157 167/195/157 158/185/157
f 158/186/158 167/196/158 168/197/158 159/187/158
f 159/187/159 168/197/159 169/198/159 160/188/159
f 160/188/160 169/198/160 170/199/160 161/189/160
f 161/189/161 170/199/161 171/200/161 162/190/161
f 162/190/162 171/200/162 163/191/162 154/181/162
f 163/191/163 172/201/163 173/202/163 164/192/163
f 164/192/164 173/202/164 174/203/164 165/193/164
f 165/193/165 174/203/165 175/204/165 166/194/165
f 166/194/166 175/204/166 176/205/166 167/195/166
f 167/196/167 176/206/167 177/207/167 168/197/167
f 168/197/168 177/207/168 178/208/168 169/198/168
f 169/198/169 178/208/169 179/209/169 170/199/169
f 170/199/170 179/209/170 180/210/170 171/200/170
f 171/200/171 180/210/171 172/201/171 163/191/171
f 172/201/172 1/1/172 2/4/172 173/202/172
f 173/202/173 2/4/173 3/6/173 174/203/173
f 174/203/174 3/6/174 4/8/174 175/204/174
f 175/204/175 4/8/175 5/10/175 176/205/175
f 176/206/176 5/11/176 6/14/176 177/207/176
f 177/207/177 6/14/177 7/16/177 178/208/177
f 178/208/178 7/16/178 8/18/178 179/209/178
f 179/209/179 8/18/179 9/20/179 180/210/179
f 180/210/180 9/20/180 1/1/180 172/201/180
